<?xml version="1.0" encoding="utf-8"?>
<!-- Generator: Adobe Illustrator 26.0.2, SVG Export Plug-In . SVG Version: 6.00 Build 0)  -->
<svg version="1.1" id="Layer_1" xmlns="http://www.w3.org/2000/svg" xmlns:xlink="http://www.w3.org/1999/xlink" x="0px" y="0px"
	 viewBox="0 0 122 32" style="enable-background:new 0 0 122 32;" xml:space="preserve">
<style type="text/css">
	.st0{fill:#2A69CE;}
</style>
<path class="st0" d="M70.3,19c0.1-3.9-2.9-7.1-6.7-7.2c-0.1,0-0.2,0-0.3,0c-4-0.1-7.2,3.1-7.3,7c-0.1,4,3.1,7.2,7,7.3
	C67,26.2,70.2,23,70.3,19C70.3,19.1,70.3,19,70.3,19z M70.2,29v-3.1h-0.1c-1.5,2.4-4.1,3.8-6.9,3.7c-5.7,0.2-10.5-4.3-10.8-10.1
	c0-0.1,0-0.1,0-0.2c0-6.4,4.6-11,10.5-11c2.8-0.1,5.4,1.1,7,3.3h0.1V8.9h3.8V29H70.2z"/>
<path class="st0" d="M94.6,19c0.2-3.8-2.8-7-6.5-7.2c-3.8-0.2-7,2.7-7.2,6.5c0,0.2,0,0.3,0,0.6c-0.1,3.9,2.9,7.1,6.8,7.2h0.1
	C91.5,25.9,94.6,22.9,94.6,19z M77.2,29V2.2H81v9.6h0.1c1.6-2.2,4.2-3.4,6.9-3.3c5.8,0.1,10.4,4.8,10.4,10.6
	c0.1,5.7-4.5,10.4-10.2,10.6c-2.9,0.1-5.5-1.1-7.2-3.3h-0.1v2.9L77.2,29z"/>
<path class="st0" d="M39.3,25.9c-6.2,0-9.6-5-9.6-10.5c0-4,2.5-10.3,9.7-10.3c3,0,5.7,1.4,7.6,3.7l3.7-1.5c-2.8-3.7-7-5.8-11.6-5.7
	c-7.6,0-13.5,6.1-13.5,14.3c-0.1,7.4,5.8,13.6,13.4,13.7c4.7,0.1,9.3-2.3,11.9-6.2l-3.7-1.5C45.5,24.5,42.5,25.9,39.3,25.9z"/>
<path class="st0" d="M13.2,11.7c3.4,0,6.3,2.5,6.8,5.9H6.7C7,14.2,9.7,11.7,13.2,11.7z M19.4,22.9c-1.4,2.1-3.7,3.2-6.1,3.2
	c-3.2-0.1-6-2.3-6.7-5.5h16.9c0.1-0.6,0.1-1.3,0.1-1.9c0.2-5.7-4.2-10.5-10-10.7C7.9,7.7,3.1,12.1,2.9,17.8c0,0.5,0,0.9,0,1.3
	C3,24.7,7.5,29.4,13.2,29.5c3.9,0,7.5-2.1,9.5-5.4L19.4,22.9z"/>
<path class="st0" d="M109.4,17.3c-3.9-1-5-1.4-5-2.6c0-1.6,1.7-2.5,4.5-2.5c2.8,0,4.1,0.8,4.8,2.6l0.1,0.2h3.6l-0.1-0.5
	c-0.8-3.8-3.9-5.9-8.4-5.9c-4.9,0-8,2.4-8,6.3c0,3.4,2.5,4.5,7.8,5.8l0.7,0.2c3.2,0.8,4.6,1.3,4.6,2.7c0,1.5-1.8,2.6-4.5,2.6
	c-3.6,0-5.3-1-6-3.4l-0.1-0.2h-3.6l0.1,0.5c0.7,4.2,4.2,6.7,9.4,6.7c4.9,0,8.1-2.5,8.1-6.3C117.4,19.8,114.2,18.4,109.4,17.3z"/>
</svg>
